# xmcd
#
# Track frame offsets: 
#        150
#        14648
#        34688
#        52644
#        70649
#        93972
#        105683
#        122019
#        137655
#        162063
#        174584
#        194330
#        209761
#        231486
#        247409
#        264565
#        277993
#        294949
#
# Disc length: 4127 seconds
#
# Revision: 0
# Processed by: cddbd v1.5.2PL0 Copyright (c) Steve Scherf et al.
# Submitted via: ExactAudioCopy v1.0b1
#
DISCID=05101d12
DTITLE=The Dramatics - Whatcha See Is Whatcha Get
DYEAR=1900
DGENRE=Soul
TTITLE0=Get Up And Get Down
TTITLE1=Thank You For Your Love
TTITLE2=Hot Pants In The Summertime
TTITLE3=Whatcha See Is Whatcha Get
TTITLE4=In The Rain
TTITLE5=Gimme Some (Good Soul Music)
TTITLE6=Fall In Love, Lady Love
TTITLE7=Mary Don't Cha Wanna
TTITLE8=The Devil Is Dope
TTITLE9=You Could Become The Very Heart Of Me
TTITLE10=Now You Got Me Loving You
TTITLE11=Fell For You
TTITLE12=Jim, What's Wrong With Him?
TTITLE13=Hey You! Get Off My Mountain
TTITLE14=Beautiful People
TTITLE15=Beware Of The Man (With The Candy In His Hand)
TTITLE16=Stand Up Clap Your Hands
TTITLE17=Hum A Song (From Your Heart)
EXTD=
EXTT0=
EXTT1=
EXTT2=
EXTT3=
EXTT4=
EXTT5=
EXTT6=
EXTT7=
EXTT8=
EXTT9=
EXTT10=
EXTT11=
EXTT12=
EXTT13=
EXTT14=
EXTT15=
EXTT16=
EXTT17=
PLAYORDER=
